<?xml version="1.0" encoding="UTF-8" standalone="no"?>
<!-- Created with Inkscape (http://www.inkscape.org/) -->

<svg
   xmlns:dc="http://purl.org/dc/elements/1.1/"
   xmlns:cc="http://creativecommons.org/ns#"
   xmlns:rdf="http://www.w3.org/1999/02/22-rdf-syntax-ns#"
   xmlns:svg="http://www.w3.org/2000/svg"
   xmlns="http://www.w3.org/2000/svg"
   xmlns:sodipodi="http://sodipodi.sourceforge.net/DTD/sodipodi-0.dtd"
   xmlns:inkscape="http://www.inkscape.org/namespaces/inkscape"
   width="250"
   height="250"
   viewBox="0 0 250 250"
   id="svg2"
   version="1.1"
   inkscape:version="0.91 r13725"
   inkscape:export-filename="/home/andre/Downloads/vero.png"
   inkscape:export-xdpi="90"
   inkscape:export-ydpi="90"
   sodipodi:docname="logo.svg">
  <defs
     id="defs4" />
  <sodipodi:namedview
     id="base"
     pagecolor="#ffffff"
     bordercolor="#666666"
     borderopacity="1.0"
     inkscape:pageopacity="0.0"
     inkscape:pageshadow="2"
     inkscape:zoom="2.0871934"
     inkscape:cx="125.85844"
     inkscape:cy="123.23639"
     inkscape:document-units="px"
     inkscape:current-layer="layer1"
     showgrid="false"
     units="px"
     inkscape:window-width="913"
     inkscape:window-height="789"
     inkscape:window-x="32"
     inkscape:window-y="82"
     inkscape:window-maximized="0" />
  <metadata
     id="metadata7">
    <rdf:RDF>
      <cc:Work
         rdf:about="">
        <dc:format>image/svg+xml</dc:format>
        <dc:type
           rdf:resource="http://purl.org/dc/dcmitype/StillImage" />
        <dc:title />
      </cc:Work>
    </rdf:RDF>
  </metadata>
  <g
     inkscape:label="Camada 1"
     inkscape:groupmode="layer"
     id="layer1"
     transform="translate(0,-802.36216)">
    <g
       id="g3342"
       style="fill:#ffffff">
      <path
         sodipodi:nodetypes="cccccccc"
         d="m 38.495269,958.56864 -30.118518,-67.14448 16.649241,0 18.974316,50.42432 31.291958,-75.7979 8.424105,0 -34.291277,92.51806 z"
         style="font-style:normal;font-variant:normal;font-weight:normal;font-stretch:normal;font-size:medium;line-height:125%;font-family:sans-serif;-inkscape-font-specification:sans-serif;letter-spacing:0px;word-spacing:0px;fill:#ffffff;fill-opacity:1;stroke:none;stroke-width:1px;stroke-linecap:butt;stroke-linejoin:miter;stroke-opacity:1"
         id="path4145-2-8-0-4"
         inkscape:connector-curvature="0" />
      <path
         d="m 80.14375,891.42416 37.86839,0 0,6.81955 -29.765188,0 0,17.73071 28.521638,0 0,6.81959 -28.521638,0 0,21.70209 30.487248,0 0,6.81948 -38.59045,0 0,-59.89142 z"
         style="font-style:normal;font-variant:normal;font-weight:normal;font-stretch:normal;font-size:medium;line-height:125%;font-family:sans-serif;-inkscape-font-specification:sans-serif;letter-spacing:0px;word-spacing:0px;fill:#ffffff;fill-opacity:1;stroke:none;stroke-width:1px;stroke-linecap:butt;stroke-linejoin:miter;stroke-opacity:1"
         id="path4147-5-4-8-0"
         inkscape:connector-curvature="0" />
      <path
         d="m 160.53385,923.23526 q 2.60746,0.8825 5.05446,3.7708 2.48713,2.88819 4.97424,7.94265 l 8.22353,16.36687 -8.70491,0 -7.66192,-15.36398 q -2.9685,-6.01715 -5.77654,-7.98285 -2.76793,-1.96558 -7.58171,-1.96558 l -8.82525,0 0,25.31241 -8.1032,0 0,-59.89142 18.29236,0 q 10.2694,0 15.32386,4.29232 5.05446,4.29224 5.05446,12.95702 0,5.6562 -2.64757,9.3869 -2.60746,3.73071 -7.62181,5.17486 z m -20.2981,-25.15203 0,21.26084 10.18916,0 q 5.85677,0 8.82526,-2.68772 3.00861,-2.72781 3.00861,-7.98285 0,-5.25504 -3.00861,-7.90256 -2.96849,-2.68771 -8.82526,-2.68771 l -10.18916,0 z"
         style="font-style:normal;font-variant:normal;font-weight:normal;font-stretch:normal;font-size:medium;line-height:125%;font-family:sans-serif;-inkscape-font-specification:sans-serif;letter-spacing:0px;word-spacing:0px;fill:#ffffff;fill-opacity:1;stroke:none;stroke-width:1px;stroke-linecap:butt;stroke-linejoin:miter;stroke-opacity:1"
         id="path4149-8-7-1-0"
         inkscape:connector-curvature="0" />
      <path
         d="m 213.56563,896.91995 q -8.82526,0 -14.04019,6.5788 -5.17481,6.5788 -5.17481,17.93129 0,11.31241 5.17481,17.89121 5.21493,6.57879 14.04019,6.57879 8.82527,0 13.95997,-6.57879 5.17481,-6.5788 5.17481,-17.89121 0,-11.35249 -5.17481,-17.93129 -5.1347,-6.5788 -13.95997,-6.5788 z m 0,-6.57888 q 12.59606,0 20.13765,8.46417 7.54158,8.42422 7.54158,22.6248 0,14.1605 -7.54158,22.62481 -7.54159,8.42411 -20.13765,8.42411 -12.63617,0 -20.21786,-8.42411 -7.54159,-8.42411 -7.54159,-22.62481 0,-14.20058 7.54159,-22.6248 7.58169,-8.46417 20.21786,-8.46417 z"
         style="font-style:normal;font-variant:normal;font-weight:normal;font-stretch:normal;font-size:medium;line-height:125%;font-family:sans-serif;-inkscape-font-specification:sans-serif;letter-spacing:0px;word-spacing:0px;fill:#ffffff;fill-opacity:1;stroke:none;stroke-width:1px;stroke-linecap:butt;stroke-linejoin:miter;stroke-opacity:1"
         id="path4151-6-2-3-4"
         inkscape:connector-curvature="0" />
    </g>
    <g
       id="g3341"
       transform="matrix(1.2170073,0,0,1.2170073,-43.584688,-190.61885)"
       style="fill:#86c1ff">
      <path
         sodipodi:nodetypes="ccscscsccscssscc"
         d="m 137.27356,959.0456 0,20.29547 0.71717,0 c 3.60109,0 6.2349,-0.81578 7.90143,-2.44734 1.67817,-1.63157 2.51726,-4.20711 2.51726,-7.72662 0,-3.4962 -0.83909,-6.05425 -2.51726,-7.67416 -1.66653,-1.63157 -4.30034,-2.44735 -7.90143,-2.44735 z m -7.07936,-2.90185 7.25462,0 c 5.05785,0 8.76965,1.05469 11.13541,3.16407 2.36577,2.09772 3.54865,5.38415 3.54865,9.85929 0,4.49845 -1.18871,7.80237 -3.56613,9.91174 -2.37742,2.10938 -6.0834,3.16407 -11.11793,3.16407 l -7.25462,0 z"
         style="font-style:normal;font-weight:normal;font-size:medium;line-height:125%;font-family:sans-serif;letter-spacing:0px;word-spacing:0px;fill:#86c1ff;fill-opacity:1;stroke:none;stroke-width:1px;stroke-linecap:butt;stroke-linejoin:miter;stroke-opacity:1"
         id="path4488"
         inkscape:connector-curvature="0" />
      <path
         d="m 157.74429,956.14375 16.50209,0 0,2.97178 -12.97092,0 0,7.72661 12.429,0 0,2.97177 -12.429,0 0,9.45724 13.28557,0 0,2.97177 -16.81674,0 0,-26.09917 z"
         style="font-style:normal;font-weight:normal;font-size:medium;line-height:125%;font-family:sans-serif;letter-spacing:0px;word-spacing:0px;fill:#86c1ff;fill-opacity:1;stroke:none;stroke-width:1px;stroke-linecap:butt;stroke-linejoin:miter;stroke-opacity:1"
         id="path4490"
         inkscape:connector-curvature="0" />
      <path
         d="m 180.39969,956.14375 5.26179,0 6.66027,17.76072 6.69523,-17.76072 5.26179,0 0,26.09917 -3.44376,0 0,-22.91762 -6.73019,17.90057 -3.54865,0 -6.73019,-17.90057 0,22.91762 -3.42629,0 0,-26.09917 z"
         style="font-style:normal;font-weight:normal;font-size:medium;line-height:125%;font-family:sans-serif;letter-spacing:0px;word-spacing:0px;fill:#86c1ff;fill-opacity:1;stroke:none;stroke-width:1px;stroke-linecap:butt;stroke-linejoin:miter;stroke-opacity:1"
         id="path4492"
         inkscape:connector-curvature="0" />
      <path
         d="m 221.89965,958.53865 q -3.84582,0 -6.11836,2.86689 -2.25505,2.86689 -2.25505,7.81402 0,4.92965 2.25505,7.79653 2.27254,2.86689 6.11836,2.86689 3.84583,0 6.0834,-2.86689 2.25505,-2.86688 2.25505,-7.79653 0,-4.94713 -2.25505,-7.81402 -2.23757,-2.86689 -6.0834,-2.86689 z m 0,-2.86689 q 5.48904,0 8.77547,3.6885 3.28644,3.67102 3.28644,9.8593 0,6.1708 -3.28644,9.85929 -3.28643,3.67102 -8.77547,3.67102 -5.50652,0 -8.81043,-3.67102 -3.28644,-3.67101 -3.28644,-9.85929 0,-6.18828 3.28644,-9.8593 3.30391,-3.6885 8.81043,-3.6885 z"
         style="font-style:normal;font-weight:normal;font-size:medium;line-height:125%;font-family:sans-serif;letter-spacing:0px;word-spacing:0px;fill:#86c1ff;fill-opacity:1;stroke:none;stroke-width:1px;stroke-linecap:butt;stroke-linejoin:miter;stroke-opacity:1"
         id="path4494"
         inkscape:connector-curvature="0" />
    </g>
  </g>
</svg>
