<?xml version="1.0" encoding="UTF-8" standalone="no"?>
<svg
   xmlns:dc="http://purl.org/dc/elements/1.1/"
   xmlns:cc="http://creativecommons.org/ns#"
   xmlns:rdf="http://www.w3.org/1999/02/22-rdf-syntax-ns#"
   xmlns:svg="http://www.w3.org/2000/svg"
   xmlns="http://www.w3.org/2000/svg"
   xmlns:sodipodi="http://sodipodi.sourceforge.net/DTD/sodipodi-0.dtd"
   xmlns:inkscape="http://www.inkscape.org/namespaces/inkscape"
   enable-background="new 0 0 128 128"
   height="20"
   id="Layer_1"
   version="1.1"
   viewBox="0 0 20 20"
   width="20"
   xml:space="preserve"
   inkscape:version="0.91 r13725"
   sodipodi:docname="plus_pedido.svg"><metadata
     id="metadata19"><rdf:RDF><cc:Work
         rdf:about=""><dc:format>image/svg+xml</dc:format><dc:type
           rdf:resource="http://purl.org/dc/dcmitype/StillImage" /><dc:title></dc:title></cc:Work></rdf:RDF></metadata><defs
     id="defs17" /><sodipodi:namedview
     pagecolor="#ffffff"
     bordercolor="#666666"
     borderopacity="1"
     objecttolerance="10"
     gridtolerance="10"
     guidetolerance="10"
     inkscape:pageopacity="0"
     inkscape:pageshadow="2"
     inkscape:window-width="694"
     inkscape:window-height="537"
     id="namedview15"
     showgrid="false"
     inkscape:zoom="9.6852219"
     inkscape:cx="10.841259"
     inkscape:cy="7.3917676"
     inkscape:window-x="53"
     inkscape:window-y="24"
     inkscape:window-maximized="0"
     inkscape:current-layer="Layer_1" /><g
     id="g3350"
     transform="matrix(0.15636181,0,0,0.15636181,0,16.872763)"><path
       style="fill:#93b0cc"
       inkscape:connector-curvature="0"
       id="path7"
       d="m 64,-108 c -35.344,0 -64,28.656 -64,64 0,35.344 28.656,64 64,64 35.344,0 64,-28.656 64,-64 0,-35.344 -28.656,-64 -64,-64 z M 64,12 C 33.125,12 8,-13.125 8,-44 c 0,-30.875 25.125,-56 56,-56 30.875,0 56,25.125 56,56 0,30.875 -25.125,56 -56,56 z" /><g
       transform="translate(0,-108)"
       style="fill:#93b0cc"
       id="g9"><g
         style="fill:#93b0cc"
         id="g11"><path
           inkscape:connector-curvature="0"
           style="fill:#93b0cc"
           id="path13"
           d="m 96,56 -24,0 0,-24 c 0,-4.414 -3.586,-8 -8,-8 -4.414,0 -8,3.586 -8,8 l 0,24 -24,0 c -4.414,0 -8,3.586 -8,8 0,4.414 3.586,8 8,8 l 24,0 0,24 c 0,4.414 3.586,8 8,8 4.414,0 8,-3.586 8,-8 l 0,-24 24,0 c 4.414,0 8,-3.586 8,-8 0,-4.414 -3.586,-8 -8,-8 z" /></g></g></g></svg>